<svg xmlns="http://www.w3.org/2000/svg" xmlns:xlink="http://www.w3.org/1999/xlink" version="1.1" id="Laag_1" x="0px" y="0px" viewBox="0 0 944 296" style="enable-background:new 0 0 944 296;" xml:space="preserve"><style type="text/css"> .totaalbed0{fill:#112151;} .totaalbed1{fill:#FE6800;} .totaalbed2{fill:#FFFFFF;} .totaalbed3{fill-rule:evenodd;clip-rule:evenodd;fill:#FFFFFF;} .totaalbed4{fill-rule:evenodd;clip-rule:evenodd;fill:#FE6800;} .totaalbed5{fill-rule:evenodd;clip-rule:evenodd;fill:#112151;} </style><path class="totaalbed0" d="M527.1,0H18C8,0,0,8,0,18v167.5c0,9.9,8,18,18,18h460.8c26.7,0,48.3-21.6,48.3-48.3V48.3 c0-26.7,21.6-48.3,48.3-48.3L527.1,0z"></path><path class="totaalbed1" d="M527.1,203.5h398.4c9.9,0,18-8.1,18-18V18c0-10-8.1-18-18-18H575.4c-26.7,0-48.3,21.6-48.3,48.3v106.9 c0,26.7-21.6,48.3-48.3,48.3H527.1z"></path><path class="totaalbed2" d="M42,101.2V84.4h16.3V61.6H78v22.8h21.7v16.8H78v34.5c0,7.8,2.3,12.8,11,12.8c3.5,0,8.2-0.7,10.7-2.5v16.6 c-4.1,2-11,2.6-15.6,2.6c-20.9,0-25.8-9.3-25.8-27.9v-36.1L42,101.2z"></path><path class="totaalbed3" d="M154.1,82.4c23.8,0,42.9,16.6,42.9,41.4s-19.1,41.4-42.9,41.4s-42.9-16.6-42.9-41.4S130.3,82.4,154.1,82.4z M154.1,147.5c14.4,0,23.1-11.3,23.1-23.7c0-12.3-8.7-23.6-23.1-23.6c-14.5,0-23.2,11.3-23.2,23.6 C130.9,136.2,139.6,147.5,154.1,147.5z"></path><path class="totaalbed2" d="M206.2,101.2V84.4h16.2V61.6h19.7v22.8h21.7v16.8h-21.7v34.5c0,7.8,2.3,12.8,11,12.8c3.5,0,8.3-0.7,10.7-2.5 v16.6c-4.1,2-11,2.6-15.6,2.6c-20.8,0-25.8-9.3-25.8-27.9v-36.1L206.2,101.2z"></path><path class="totaalbed3" d="M328.6,152.4h-0.5c-5.6,8.9-14.8,12.8-25.3,12.8c-14.7,0-28.8-8-28.8-23.6c0-25.7,29.9-27.5,49.6-27.5h5V112 c0-9.7-7.6-14.8-18.1-14.8c-8.2,0-15.8,3.3-21,8.2l-10.4-10.3c8.7-8.9,21-12.7,33.5-12.7c33.7,0,33.7,24.4,33.7,35.5v45.4h-17.7 L328.6,152.4z M327.4,127.9h-4.1c-10.8,0-29.6,0.8-29.6,12.1c0,7.3,7.4,10.4,13.8,10.4c13.5,0,19.9-7.1,19.9-18.1L327.4,127.9z"></path><path class="totaalbed3" d="M416.8,152.4h-0.5c-5.6,8.9-14.8,12.8-25.3,12.8c-14.6,0-28.8-8-28.8-23.6c0-25.7,29.9-27.5,49.6-27.5h5V112 c0-9.7-7.6-14.8-18.1-14.8c-8.2,0-15.8,3.3-21,8.2l-10.4-10.3c8.7-8.9,21.1-12.7,33.5-12.7c33.7,0,33.7,24.4,33.7,35.5v45.4h-17.7 L416.8,152.4z M415.6,127.9h-4.1c-10.8,0-29.6,0.8-29.6,12.1c0,7.3,7.4,10.4,13.8,10.4c13.5,0,19.9-7.1,19.9-18.1L415.6,127.9z"></path><path class="totaalbed2" d="M456,39.1h19.7v124.2H456V39.1z"></path><path class="totaalbed3" d="M578.8,47h43.3c20.4,0,42.6,4.2,42.6,29.5c0,13-8.1,21.9-20.1,25.7v0.3c15.3,2,25.5,13.3,25.5,28.4 c0,24.3-23,32.4-43.7,32.4h-47.6V47z M604.4,93.5h18.5c7.9,0,16.1-3.3,16.1-12.7c0-9.7-9.2-12.2-17.2-12.2h-17.4L604.4,93.5z M604.4,141.7h23c8,0,17.1-3.5,17.1-13.7c0-11-12.4-12.8-20.7-12.8h-19.4L604.4,141.7z"></path><path class="totaalbed2" d="M686.2,47h79v23.6h-53.4v21.7h50.5v23.6h-50.5v23.7h56.4v23.7h-82V47z"></path><path class="totaalbed3" d="M788.7,47h38.4c37.5,0,68.9,15.9,68.9,58.4c0,37.7-30.7,57.9-65.4,57.9h-41.9V47z M814.3,139.6h13.3 c23.9,0,41.8-9,41.8-35.5c0-22.8-18.3-33.5-40-33.5h-15.1V139.6z"></path><path class="totaalbed1" d="M210.9,277.7l4.3-6.5c4.6,3.4,9.5,5.2,13.8,5.2c4.2,0,6.6-1.8,6.6-4.6v-0.2c0-3.2-4.5-4.4-9.5-5.9 c-6.2-1.7-13.1-4.3-13.1-12.3v-0.1c0-8.1,6.6-13,15-13c5.3,0,11,1.9,15.5,4.8l-3.9,6.9c-4-2.5-8.3-4-11.9-4c-3.7,0-5.9,1.8-5.9,4.1 v0.2c0,3.1,4.6,4.4,9.5,6c6.2,1.9,13.1,4.7,13.1,12.3v0.2c0,8.8-6.8,13.2-15.6,13.2C222.8,284,216.2,281.9,210.9,277.7L210.9,277.7z "></path><path class="totaalbed1" d="M258.8,224.9h9.8v58.3h-9.8V224.9z"></path><path class="totaalbed4" d="M282.3,271.1v-0.2c0-9.1,7.2-13.6,17.5-13.6c4.7,0,8.1,0.8,11.3,1.8v-1c0-6-3.6-9.2-10.4-9.2 c-4.7,0-8.2,1-12.1,2.6l-2.6-7.6c4.7-2.1,9.3-3.4,16-3.4c6.3,0,11,1.7,13.9,4.7c3.2,3,4.6,7.5,4.6,13v25h-9.4V278 c-2.9,3.4-7.3,6.1-13.8,6.1C289.4,284.1,282.3,279.6,282.3,271.1L282.3,271.1z M311.3,268v-2.8c-2.5-1-5.7-1.7-9.6-1.7 c-6.2,0-9.9,2.6-9.9,7v0.2c0,4.1,3.6,6.4,8.2,6.4C306.4,277.1,311.3,273.4,311.3,268z"></path><path class="totaalbed4" d="M333.2,271.1v-0.2c0-9.1,7.2-13.6,17.5-13.6c4.7,0,8.1,0.8,11.3,1.8v-1c0-6-3.6-9.2-10.4-9.2 c-4.7,0-8.2,1-12.1,2.6l-2.6-7.6c4.7-2.1,9.2-3.4,16-3.4c6.3,0,11,1.7,13.9,4.7c3.2,3,4.6,7.5,4.6,13v25H362V278 c-2.9,3.4-7.3,6.1-13.8,6.1C340.3,284.1,333.2,279.6,333.2,271.1L333.2,271.1z M362.2,268v-2.8c-2.5-1-5.7-1.7-9.6-1.7 c-6.2,0-9.9,2.6-9.9,7v0.2c0,4.1,3.6,6.4,8.2,6.4C357.3,277.1,362.2,273.4,362.2,268z"></path><path class="totaalbed4" d="M386.9,241.1h9.7v7c3.2-4.4,7.6-7.9,14.4-7.9c9.9,0,19.6,7.8,19.6,21.9v0.1c0,14-9.6,21.9-19.6,21.9 c-7,0-11.4-3.5-14.4-7.4V296h-9.7V241.1z M420.8,262.3v-0.2c0-8.1-5.6-13.5-12.1-13.5s-12.3,5.4-12.3,13.5v0.2 c0,8,5.8,13.5,12.3,13.5C415.3,275.8,420.8,270.6,420.8,262.3z"></path><path class="totaalbed0" d="M473,224.9h9.8v58.3H473V224.9z"></path><path class="totaalbed5" d="M497.1,262.3v-0.2c0-12,8.5-21.9,20.6-21.9c13.4,0,20.2,10.5,20.2,22.7c0,0.8-0.1,1.7-0.2,2.7h-31 c1.1,6.8,6,10.7,12.2,10.7c4.7,0,8-1.8,11.4-5.1l5.7,5.1c-4,4.8-9.5,7.9-17.3,7.9C506.5,284.2,497.1,275.3,497.1,262.3L497.1,262.3z M528.3,259.2c-0.6-6.2-4.3-11.1-10.7-11.1c-5.9,0-10.1,4.5-10.9,11.1H528.3z"></path><path class="totaalbed0" d="M551.6,224.9h9.7v34.8l17.5-18.6h11.7l-16.7,17.1l17.3,25h-11.3l-12.5-18.3l-6,6.3v12h-9.7V224.9z"></path><path class="totaalbed0" d="M602.1,224.9h9.7v34.8l17.5-18.6H641l-16.7,17.1l17.3,25h-11.3l-12.5-18.3l-6,6.3v12h-9.7V224.9z"></path><path class="totaalbed5" d="M648.3,262.3v-0.2c0-12,8.6-21.9,20.6-21.9c13.4,0,20.2,10.5,20.2,22.7c0,0.8,0,1.7-0.1,2.7h-31 c1,6.8,5.9,10.7,12.1,10.7c4.7,0,8.1-1.8,11.4-5.1l5.7,5.1c-4,4.8-9.5,7.9-17.2,7.9C657.7,284.2,648.3,275.3,648.3,262.3 L648.3,262.3z M679.6,259.2c-0.7-6.2-4.4-11.1-10.8-11.1c-5.9,0-10,4.5-10.9,11.1H679.6z"></path><path class="totaalbed0" d="M702.8,241.1h9.8v9.5c2.6-6.4,7.5-10.7,14.9-10.4v10.3h-0.6c-8.4,0-14.3,5.5-14.3,16.7v16h-9.8L702.8,241.1z"></path></svg>